<svg width="90" height="67" viewBox="0 0 90 67" fill="none" xmlns="http://www.w3.org/2000/svg">
<path opacity="0.5" d="M41.64 61.256C37.544 64.52 32.584 66.152 26.76 66.152C20.936 66.152 15.944 64.52 11.784 61.256C7.688 57.928 4.744 53.832 2.952 48.968C1.16 44.104 0.264 38.792 0.264 33.032C0.264 27.272 1.16 21.96 2.952 17.096C4.744 12.232 7.688 8.168 11.784 4.904C15.944 1.64 20.936 0.00799561 26.76 0.00799561C32.584 0.00799561 37.544 1.64 41.64 4.904C45.736 8.168 48.68 12.232 50.472 17.096C52.328 21.96 53.256 27.272 53.256 33.032C53.256 38.792 52.328 44.104 50.472 48.968C48.68 53.832 45.736 57.928 41.64 61.256ZM17.16 48.296C19.208 52.136 22.408 54.056 26.76 54.056C31.112 54.056 34.28 52.136 36.264 48.296C38.312 44.456 39.336 39.368 39.336 33.032C39.336 26.696 38.312 21.64 36.264 17.864C34.28 14.024 31.112 12.104 26.76 12.104C22.408 12.104 19.208 14.024 17.16 17.864C15.112 21.64 14.088 26.696 14.088 33.032C14.088 39.368 15.112 44.456 17.16 48.296ZM89.6513 65H76.0193V18.536L65.3633 29.384L57.5873 21.224L77.7473 0.967995H89.6513V65Z" fill="white"/>
</svg>
