<svg width="110" height="67" viewBox="0 0 110 67" fill="none" xmlns="http://www.w3.org/2000/svg">
<path opacity="0.5" d="M41.5463 61.256C37.4503 64.52 32.4903 66.152 26.6663 66.152C20.8423 66.152 15.8503 64.52 11.6903 61.256C7.59425 57.928 4.65025 53.832 2.85825 48.968C1.06625 44.104 0.17025 38.792 0.17025 33.032C0.17025 27.272 1.06625 21.96 2.85825 17.096C4.65025 12.232 7.59425 8.168 11.6903 4.904C15.8503 1.64 20.8423 0.00799561 26.6663 0.00799561C32.4903 0.00799561 37.4503 1.64 41.5463 4.904C45.6423 8.168 48.5863 12.232 50.3783 17.096C52.2343 21.96 53.1623 27.272 53.1623 33.032C53.1623 38.792 52.2343 44.104 50.3783 48.968C48.5863 53.832 45.6423 57.928 41.5463 61.256ZM17.0663 48.296C19.1143 52.136 22.3143 54.056 26.6663 54.056C31.0183 54.056 34.1863 52.136 36.1703 48.296C38.2183 44.456 39.2423 39.368 39.2423 33.032C39.2423 26.696 38.2183 21.64 36.1703 17.864C34.1863 14.024 31.0183 12.104 26.6663 12.104C22.3143 12.104 19.1143 14.024 17.0663 17.864C15.0183 21.64 13.9943 26.696 13.9943 33.032C13.9943 39.368 15.0183 44.456 17.0663 48.296ZM109.142 65H60.9495V54.344C74.6455 44.168 83.7015 36.936 88.1175 32.648C92.5975 28.296 94.8375 24.232 94.8375 20.456C94.8375 17.832 93.8135 15.784 91.7655 14.312C89.7175 12.84 87.2855 12.104 84.4695 12.104C77.7495 12.104 72.0215 14.568 67.2855 19.496L59.5095 10.472C62.5175 7.016 66.1975 4.424 70.5495 2.696C74.9655 0.903996 79.5095 0.00799561 84.1815 0.00799561C91.2215 0.00799561 97.0455 1.864 101.654 5.576C106.326 9.288 108.662 14.248 108.662 20.456C108.662 25.704 106.582 30.856 102.422 35.912C98.3255 40.904 91.8615 46.6 83.0295 53H109.142V65Z" fill="#1840A7"/>
</svg>
