<svg width="110" height="67" viewBox="0 0 110 67" fill="none" xmlns="http://www.w3.org/2000/svg">
<path opacity="0.5" d="M41.765 61.256C37.669 64.52 32.709 66.152 26.885 66.152C21.061 66.152 16.069 64.52 11.909 61.256C7.813 57.928 4.869 53.832 3.077 48.968C1.285 44.104 0.389 38.792 0.389 33.032C0.389 27.272 1.285 21.96 3.077 17.096C4.869 12.232 7.813 8.168 11.909 4.904C16.069 1.64 21.061 0.00799561 26.885 0.00799561C32.709 0.00799561 37.669 1.64 41.765 4.904C45.861 8.168 48.805 12.232 50.597 17.096C52.453 21.96 53.381 27.272 53.381 33.032C53.381 38.792 52.453 44.104 50.597 48.968C48.805 53.832 45.861 57.928 41.765 61.256ZM17.285 48.296C19.333 52.136 22.533 54.056 26.885 54.056C31.237 54.056 34.405 52.136 36.389 48.296C38.437 44.456 39.461 39.368 39.461 33.032C39.461 26.696 38.437 21.64 36.389 17.864C34.405 14.024 31.237 12.104 26.885 12.104C22.533 12.104 19.333 14.024 17.285 17.864C15.237 21.64 14.213 26.696 14.213 33.032C14.213 39.368 15.237 44.456 17.285 48.296ZM83.8243 66.152C78.1923 66.152 73.2003 65.224 68.8483 63.368C64.4963 61.448 61.0723 58.952 58.5763 55.88L65.6803 46.76C67.8563 49 70.5443 50.792 73.7443 52.136C76.9443 53.416 80.1443 54.056 83.3443 54.056C87.1843 54.056 90.1603 53.32 92.2723 51.848C94.3843 50.312 95.4403 48.328 95.4403 45.896C95.4403 43.336 94.4163 41.48 92.3683 40.328C90.3203 39.112 87.0563 38.504 82.5763 38.504C78.5443 38.504 75.8883 38.568 74.6083 38.696V26.408C75.3763 26.472 78.0323 26.504 82.5763 26.504C90.4483 26.504 94.3843 24.232 94.3843 19.688C94.3843 17.256 93.2643 15.4 91.0243 14.12C88.8483 12.776 86.0003 12.104 82.4803 12.104C76.2723 12.104 70.8643 14.312 66.2563 18.728L59.4403 10.184C65.4563 3.4 73.6163 0.00799561 83.9203 0.00799561C91.4083 0.00799561 97.2963 1.576 101.584 4.712C105.936 7.848 108.112 12.072 108.112 17.384C108.112 21.224 106.736 24.456 103.984 27.08C101.232 29.64 97.9363 31.272 94.0963 31.976C97.8723 32.36 101.296 33.928 104.368 36.68C107.504 39.368 109.072 42.92 109.072 47.336C109.072 52.904 106.768 57.448 102.16 60.968C97.5523 64.424 91.4403 66.152 83.8243 66.152Z" fill="#1840A7"/>
</svg>
