<svg width="112" height="67" viewBox="0 0 112 67" fill="none" xmlns="http://www.w3.org/2000/svg">
<path opacity="0.5" d="M41.8275 61.256C37.7315 64.52 32.7715 66.152 26.9475 66.152C21.1235 66.152 16.1315 64.52 11.9715 61.256C7.8755 57.928 4.9315 53.832 3.1395 48.968C1.3475 44.104 0.4515 38.792 0.4515 33.032C0.4515 27.272 1.3475 21.96 3.1395 17.096C4.9315 12.232 7.8755 8.168 11.9715 4.904C16.1315 1.64 21.1235 0.00799561 26.9475 0.00799561C32.7715 0.00799561 37.7315 1.64 41.8275 4.904C45.9235 8.168 48.8675 12.232 50.6595 17.096C52.5155 21.96 53.4435 27.272 53.4435 33.032C53.4435 38.792 52.5155 44.104 50.6595 48.968C48.8675 53.832 45.9235 57.928 41.8275 61.256ZM17.3475 48.296C19.3955 52.136 22.5955 54.056 26.9475 54.056C31.2995 54.056 34.4675 52.136 36.4515 48.296C38.4995 44.456 39.5235 39.368 39.5235 33.032C39.5235 26.696 38.4995 21.64 36.4515 17.864C34.4675 14.024 31.2995 12.104 26.9475 12.104C22.5955 12.104 19.3955 14.024 17.3475 17.864C15.2995 21.64 14.2755 26.696 14.2755 33.032C14.2755 39.368 15.2995 44.456 17.3475 48.296ZM103.375 65H89.7428V51.752H59.1188V41L84.5588 0.967995H103.375V39.752H111.631V51.752H103.375V65ZM89.7428 39.752V13.064L72.4628 39.752H89.7428Z" fill="#1840A7"/>
</svg>
