<svg width="112" height="67" viewBox="0 0 112 67" fill="none" xmlns="http://www.w3.org/2000/svg">
<path opacity="0.5" d="M41.7025 61.256C37.6065 64.52 32.6465 66.152 26.8225 66.152C20.9985 66.152 16.0065 64.52 11.8465 61.256C7.7505 57.928 4.8065 53.832 3.0145 48.968C1.2225 44.104 0.3265 38.792 0.3265 33.032C0.3265 27.272 1.2225 21.96 3.0145 17.096C4.8065 12.232 7.7505 8.168 11.8465 4.904C16.0065 1.64 20.9985 0.00799561 26.8225 0.00799561C32.6465 0.00799561 37.6065 1.64 41.7025 4.904C45.7985 8.168 48.7425 12.232 50.5345 17.096C52.3905 21.96 53.3185 27.272 53.3185 33.032C53.3185 38.792 52.3905 44.104 50.5345 48.968C48.7425 53.832 45.7985 57.928 41.7025 61.256ZM17.2225 48.296C19.2705 52.136 22.4705 54.056 26.8225 54.056C31.1745 54.056 34.3425 52.136 36.3265 48.296C38.3745 44.456 39.3985 39.368 39.3985 33.032C39.3985 26.696 38.3745 21.64 36.3265 17.864C34.3425 14.024 31.1745 12.104 26.8225 12.104C22.4705 12.104 19.2705 14.024 17.2225 17.864C15.1745 21.64 14.1505 26.696 14.1505 33.032C14.1505 39.368 15.1745 44.456 17.2225 48.296ZM85.9698 66.152C75.4098 66.152 67.1858 62.952 61.2978 56.552L68.8818 47.048C73.3618 51.72 79.0258 54.056 85.8738 54.056C89.5218 54.056 92.4018 53.16 94.5138 51.368C96.6898 49.512 97.7778 47.24 97.7778 44.552C97.7778 41.672 96.7538 39.368 94.7058 37.64C92.6578 35.912 89.8418 35.048 86.2578 35.048C80.9458 35.048 76.4658 36.776 72.8178 40.232L63.3138 37.736V0.967995H107.282V12.968H76.9458V28.616C80.5298 25.032 85.2338 23.24 91.0578 23.24C96.7538 23.24 101.586 25.128 105.554 28.904C109.586 32.68 111.602 37.704 111.602 43.976C111.602 50.76 109.266 56.168 104.594 60.2C99.9218 64.168 93.7138 66.152 85.9698 66.152Z" fill="#1840A7"/>
</svg>
