<svg width="112" height="67" viewBox="0 0 112 67" fill="none" xmlns="http://www.w3.org/2000/svg">
<path opacity="0.5" d="M41.7025 61.256C37.6065 64.52 32.6465 66.152 26.8225 66.152C20.9985 66.152 16.0065 64.52 11.8465 61.256C7.7505 57.928 4.8065 53.832 3.0145 48.968C1.2225 44.104 0.3265 38.792 0.3265 33.032C0.3265 27.272 1.2225 21.96 3.0145 17.096C4.8065 12.232 7.7505 8.168 11.8465 4.904C16.0065 1.64 20.9985 0.00799561 26.8225 0.00799561C32.6465 0.00799561 37.6065 1.64 41.7025 4.904C45.7985 8.168 48.7425 12.232 50.5345 17.096C52.3905 21.96 53.3185 27.272 53.3185 33.032C53.3185 38.792 52.3905 44.104 50.5345 48.968C48.7425 53.832 45.7985 57.928 41.7025 61.256ZM17.2225 48.296C19.2705 52.136 22.4705 54.056 26.8225 54.056C31.1745 54.056 34.3425 52.136 36.3265 48.296C38.3745 44.456 39.3985 39.368 39.3985 33.032C39.3985 26.696 38.3745 21.64 36.3265 17.864C34.3425 14.024 31.1745 12.104 26.8225 12.104C22.4705 12.104 19.2705 14.024 17.2225 17.864C15.1745 21.64 14.1505 26.696 14.1505 33.032C14.1505 39.368 15.1745 44.456 17.2225 48.296ZM87.5058 66.152C78.2898 66.152 71.3778 63.08 66.7698 56.936C62.1618 50.792 59.8578 42.856 59.8578 33.128C59.8578 23.208 62.5138 15.208 67.8258 9.128C73.1378 3.048 80.4338 0.00799561 89.7138 0.00799561C97.1378 0.00799561 103.442 2.216 108.626 6.632L102.482 17.096C98.9618 13.768 94.7058 12.104 89.7138 12.104C85.0418 12.104 81.2018 13.864 78.1938 17.384C75.1858 20.84 73.6818 25.128 73.6818 30.248C73.6818 30.824 73.7138 31.272 73.7778 31.592C75.3778 29.288 77.6818 27.336 80.6898 25.736C83.6978 24.136 86.8658 23.336 90.1938 23.336C96.2738 23.336 101.426 25.192 105.65 28.904C109.874 32.552 111.986 37.64 111.986 44.168C111.986 50.504 109.714 55.752 105.17 59.912C100.626 64.072 94.7378 66.152 87.5058 66.152ZM86.7378 54.056C90.1938 54.056 92.9458 53.096 94.9938 51.176C97.1058 49.256 98.1618 47.08 98.1618 44.648C98.1618 41.512 97.0098 39.144 94.7058 37.544C92.4018 35.88 89.5858 35.048 86.2578 35.048C81.1378 35.048 76.9778 37.064 73.7778 41.096C74.0978 44.68 75.3138 47.752 77.4258 50.312C79.5378 52.808 82.6418 54.056 86.7378 54.056Z" fill="#1840A7"/>
</svg>
