<svg width="30" height="30" viewBox="0 0 30 30" fill="none" xmlns="http://www.w3.org/2000/svg">
<g clip-path="url(#clip0_4878_305)">
<path fill-rule="evenodd" clip-rule="evenodd" d="M10.4536 1.02562C10.4536 0.459191 10.9128 0 11.4792 0H28.9743C29.5408 0 30 0.459191 30 1.02562V10.959C30 11.2017 29.8032 11.3984 29.5605 11.3984C29.3178 11.3984 29.1211 11.2017 29.1211 10.959V1.02562C29.1211 0.944598 29.0554 0.878906 28.9743 0.878906H11.4792C11.3982 0.878906 11.3325 0.944598 11.3325 1.02562V5.67252C11.3325 5.91522 11.1358 6.11197 10.8931 6.11197C10.6504 6.11197 10.4536 5.91522 10.4536 5.67252V1.02562ZM29.5604 12.4627C29.8032 12.4627 29.9999 12.6594 29.9999 12.9021V18.5207C29.9999 19.0872 29.5407 19.5463 28.9743 19.5463H24.3274C24.0847 19.5463 23.8879 19.3496 23.8879 19.1069C23.8879 18.8642 24.0847 18.6674 24.3274 18.6674H28.9743C29.0553 18.6674 29.121 18.6017 29.121 18.5207V12.9021C29.121 12.6594 29.3177 12.4627 29.5604 12.4627ZM24.3274 21.9009C24.5701 21.9009 24.7668 22.0977 24.7668 22.3404V23.7538C24.7668 24.3203 24.3076 24.7795 23.7412 24.7795H19.1069C18.8642 24.7795 18.6674 24.5827 18.6674 24.34C18.6674 24.0973 18.8642 23.9006 19.1069 23.9006H23.7412C23.8222 23.9006 23.8879 23.8349 23.8879 23.7538V22.3404C23.8879 22.0977 24.0847 21.9009 24.3274 21.9009Z" fill="white"/>
<path fill-rule="evenodd" clip-rule="evenodd" d="M5.22059 6.25878C5.22059 5.69235 5.67978 5.23315 6.24621 5.23315H16.3499C16.5926 5.23315 16.7893 5.4299 16.7893 5.67261C16.7893 5.91531 16.5926 6.11206 16.3499 6.11206H6.24621C6.16518 6.11206 6.09949 6.17775 6.09949 6.25878V10.4537H18.5207C19.0871 10.4537 19.5463 10.9129 19.5463 11.4793V28.9743C19.5463 28.9743 19.5463 28.9743 19.5463 28.9743C19.5463 29.5408 19.0871 30 18.5207 30H1.02562C0.459193 30 0 29.5408 0 28.9744V11.4793C0 10.9129 0.459191 10.4537 1.02562 10.4537H5.22059V6.25878ZM5.07103 11.3326L5.21504 11.4766C5.38665 11.6482 5.38665 11.9265 5.21504 12.0981C5.04342 12.2697 4.76517 12.2697 4.59356 12.0981L3.82807 11.3326H1.52705L1.67105 11.4766C1.84267 11.6482 1.84267 11.9265 1.67105 12.0981C1.49944 12.2697 1.22119 12.2697 1.04957 12.0981L0.878906 11.9274V14.2551L1.67105 15.0472C1.84267 15.2189 1.84267 15.4971 1.67105 15.6687C1.49944 15.8403 1.22119 15.8403 1.04957 15.6687L0.878906 15.4981V17.7991L1.67105 18.5912C1.84267 18.7628 1.84267 19.0411 1.67105 19.2127C1.49944 19.3843 1.22119 19.3843 1.04957 19.2127L0.878906 19.042V21.3431L1.67105 22.1352C1.84267 22.3068 1.84267 22.5851 1.67105 22.7567C1.49944 22.9283 1.22119 22.9283 1.04957 22.7567L0.878906 22.586V24.887L1.67105 25.6792C1.84267 25.8508 1.84267 26.1291 1.67105 26.3007C1.49943 26.4723 1.22119 26.4723 1.04957 26.3007L0.878906 26.13V28.9744C0.878906 29.0554 0.944596 29.1211 1.02562 29.1211H3.87002L3.69936 28.9505C3.52774 28.7788 3.52774 28.5006 3.69936 28.329C3.87098 28.1574 4.14922 28.1574 4.32084 28.329L5.11298 29.1211H7.41401L7.24334 28.9505C7.07172 28.7788 7.07172 28.5006 7.24334 28.329C7.41496 28.1574 7.69321 28.1574 7.86482 28.329L8.65697 29.1211H10.958L10.7873 28.9505C10.6157 28.7788 10.6157 28.5006 10.7873 28.329C10.9589 28.1574 11.2372 28.1574 11.4088 28.329L12.2009 29.1211H14.502L14.3313 28.9505C14.1597 28.7788 14.1597 28.5006 14.3313 28.329C14.5029 28.1574 14.7812 28.1574 14.9528 28.329L15.7449 29.1211H18.046L17.8753 28.9505C17.7037 28.7788 17.7037 28.5006 17.8753 28.329C18.0469 28.1574 18.3252 28.1574 18.4968 28.329L18.6674 28.4996V26.1986L17.8753 25.4065C17.7037 25.2349 17.7037 24.9566 17.8753 24.785C18.0469 24.6134 18.3252 24.6134 18.4968 24.785L18.6674 24.9556V22.6546L17.8753 21.8625C17.7037 21.6909 17.7037 21.4126 17.8753 21.241C18.0469 21.0694 18.3252 21.0694 18.4968 21.241L18.6674 21.4116V19.1106L17.8753 18.3185C17.7037 18.1469 17.7037 17.8686 17.8753 17.697C18.0469 17.5254 18.3252 17.5254 18.4968 17.697L18.6674 17.8676V15.5666L17.8753 14.7745C17.7037 14.6029 17.7037 14.3247 17.8753 14.153C18.0469 13.9814 18.3252 13.9814 18.4968 14.153L18.6674 14.3236V11.4793C18.6674 11.3983 18.6017 11.3326 18.5207 11.3326H15.703L15.847 11.4766C16.0186 11.6482 16.0186 11.9265 15.847 12.0981C15.6754 12.2697 15.3971 12.2697 15.2255 12.0981L14.46 11.3326H12.159L12.303 11.4766C12.4746 11.6482 12.4746 11.9265 12.303 12.0981C12.1314 12.2697 11.8531 12.2697 11.6815 12.0981L10.916 11.3326H8.61502L8.75902 11.4766C8.93064 11.6482 8.93064 11.9265 8.75902 12.0981C8.5874 12.2697 8.30916 12.2697 8.13754 12.0981L7.37205 11.3326H5.07103ZM17.8535 5.67261C17.8535 5.4299 18.0503 5.23315 18.293 5.23315H23.7412C24.3077 5.23315 24.7669 5.69235 24.7669 6.25878V20.3973C24.7669 20.64 24.5701 20.8367 24.3274 20.8367C24.0847 20.8367 23.888 20.64 23.888 20.3973V6.25878C23.888 6.17775 23.8223 6.11206 23.7412 6.11206H18.293C18.0503 6.11206 17.8535 5.91531 17.8535 5.67261ZM3.44304 12.381C3.61466 12.5527 3.61466 12.8309 3.44304 13.0025L2.54885 13.8967C2.37723 14.0683 2.09898 14.0683 1.92737 13.8967C1.75575 13.7251 1.75575 13.4469 1.92737 13.2752L2.82156 12.381C2.99318 12.2094 3.27143 12.2094 3.44304 12.381ZM6.98703 12.381C7.15865 12.5527 7.15865 12.8309 6.98703 13.0025L6.09283 13.8967C5.92121 14.0683 5.64297 14.0683 5.47135 13.8967C5.29973 13.7251 5.29973 13.4469 5.47135 13.2752L6.36555 12.381C6.53717 12.2094 6.81541 12.2094 6.98703 12.381ZM10.531 12.381C10.7026 12.5527 10.7026 12.8309 10.531 13.0025L9.63681 13.8967C9.4652 14.0683 9.18695 14.0683 9.01533 13.8967C8.84372 13.7251 8.84372 13.4469 9.01533 13.2752L9.90953 12.381C10.0811 12.2094 10.3594 12.2094 10.531 12.381ZM14.075 12.381C14.2466 12.5527 14.2466 12.8309 14.075 13.0025L13.1808 13.8967C13.0092 14.0683 12.7309 14.0683 12.5593 13.8967C12.3877 13.7251 12.3877 13.4469 12.5593 13.2752L13.4535 12.381C13.6251 12.2094 13.9034 12.2094 14.075 12.381ZM17.619 12.381C17.7906 12.5527 17.7906 12.8309 17.619 13.0025L16.7248 13.8967C16.5532 14.0683 16.2749 14.0683 16.1033 13.8967C15.9317 13.7251 15.9317 13.4469 16.1033 13.2752L16.9975 12.381C17.1691 12.2094 17.4474 12.2094 17.619 12.381ZM3.69936 14.7745C3.52774 14.6029 3.52774 14.3247 3.69936 14.153C3.87097 13.9814 4.14922 13.9814 4.32084 14.153L5.21504 15.0472C5.38665 15.2189 5.38665 15.4971 5.21504 15.6687C5.04342 15.8403 4.76517 15.8403 4.59356 15.6687L3.69936 14.7745ZM7.24334 14.7745C7.07172 14.6029 7.07172 14.3247 7.24334 14.153C7.41496 13.9814 7.6932 13.9814 7.86482 14.153L8.75902 15.0472C8.93064 15.2189 8.93064 15.4971 8.75902 15.6687C8.5874 15.8403 8.30916 15.8403 8.13754 15.6687L7.24334 14.7745ZM10.7873 14.7745C10.6157 14.6029 10.6157 14.3247 10.7873 14.153C10.9589 13.9814 11.2372 13.9814 11.4088 14.153L12.303 15.0472C12.4746 15.2189 12.4746 15.4971 12.303 15.6687C12.1314 15.8403 11.8531 15.8403 11.6815 15.6687L10.7873 14.7745ZM14.3313 14.7745C14.1597 14.6029 14.1597 14.3247 14.3313 14.153C14.5029 13.9814 14.7812 13.9814 14.9528 14.153L15.847 15.0472C16.0186 15.2189 16.0186 15.4971 15.847 15.6687C15.6754 15.8403 15.3971 15.8403 15.2255 15.6687L14.3313 14.7745ZM3.44304 15.925C3.61466 16.0966 3.61466 16.3749 3.44304 16.5465L2.54885 17.4407C2.37723 17.6123 2.09898 17.6123 1.92737 17.4407C1.75575 17.2691 1.75575 16.9908 1.92736 16.8192L2.82156 15.925C2.99318 15.7534 3.27143 15.7534 3.44304 15.925ZM6.98703 15.925C7.15865 16.0966 7.15865 16.3749 6.98703 16.5465L6.09283 17.4407C5.92121 17.6123 5.64297 17.6123 5.47135 17.4407C5.29973 17.2691 5.29973 16.9908 5.47135 16.8192L6.36555 15.925C6.53717 15.7534 6.81541 15.7534 6.98703 15.925ZM10.531 15.925C10.7026 16.0966 10.7026 16.3749 10.531 16.5465L9.63681 17.4407C9.4652 17.6123 9.18695 17.6123 9.01533 17.4407C8.84372 17.2691 8.84372 16.9908 9.01533 16.8192L9.90953 15.925C10.0811 15.7534 10.3594 15.7534 10.531 15.925ZM14.075 15.925C14.2466 16.0966 14.2466 16.3749 14.075 16.5465L13.1808 17.4407C13.0092 17.6123 12.7309 17.6123 12.5593 17.4407C12.3877 17.2691 12.3877 16.9908 12.5593 16.8192L13.4535 15.925C13.6251 15.7534 13.9034 15.7534 14.075 15.925ZM17.619 15.925C17.7906 16.0966 17.7906 16.3749 17.619 16.5465L16.7248 17.4407C16.5532 17.6123 16.2749 17.6123 16.1033 17.4407C15.9317 17.2691 15.9317 16.9908 16.1033 16.8192L16.9975 15.925C17.1691 15.7534 17.4474 15.7534 17.619 15.925ZM3.69936 18.3185C3.52774 18.1469 3.52774 17.8686 3.69936 17.697C3.87097 17.5254 4.14922 17.5254 4.32084 17.697L5.21504 18.5912C5.38665 18.7628 5.38665 19.0411 5.21504 19.2127C5.04342 19.3843 4.76517 19.3843 4.59356 19.2127L3.69936 18.3185ZM7.24334 18.3185C7.07172 18.1469 7.07172 17.8686 7.24334 17.697C7.41496 17.5254 7.6932 17.5254 7.86482 17.697L8.75902 18.5912C8.93064 18.7628 8.93064 19.0411 8.75902 19.2127C8.5874 19.3843 8.30916 19.3843 8.13754 19.2127L7.24334 18.3185ZM10.7873 18.3185C10.6157 18.1469 10.6157 17.8686 10.7873 17.697C10.9589 17.5254 11.2372 17.5254 11.4088 17.697L12.303 18.5912C12.4746 18.7628 12.4746 19.0411 12.303 19.2127C12.1314 19.3843 11.8531 19.3843 11.6815 19.2127L10.7873 18.3185ZM14.3313 18.3185C14.1597 18.1469 14.1597 17.8686 14.3313 17.697C14.5029 17.5254 14.7812 17.5254 14.9528 17.697L15.847 18.5912C16.0186 18.7628 16.0186 19.0411 15.847 19.2127C15.6754 19.3843 15.3971 19.3843 15.2255 19.2127L14.3313 18.3185ZM3.44304 19.469C3.61466 19.6406 3.61466 19.9189 3.44304 20.0905L2.54885 20.9847C2.37723 21.1563 2.09898 21.1563 1.92737 20.9847C1.75575 20.8131 1.75575 20.5348 1.92737 20.3632L2.82156 19.469C2.99318 19.2974 3.27143 19.2974 3.44304 19.469ZM6.98703 19.469C7.15865 19.6406 7.15865 19.9189 6.98703 20.0905L6.09283 20.9847C5.92121 21.1563 5.64297 21.1563 5.47135 20.9847C5.29973 20.8131 5.29973 20.5348 5.47135 20.3632L6.36555 19.469C6.53717 19.2974 6.81541 19.2974 6.98703 19.469ZM10.531 19.469C10.7026 19.6406 10.7026 19.9189 10.531 20.0905L9.63681 20.9847C9.4652 21.1563 9.18695 21.1563 9.01533 20.9847C8.84372 20.8131 8.84372 20.5348 9.01533 20.3632L9.90953 19.469C10.0811 19.2974 10.3594 19.2974 10.531 19.469ZM14.075 19.469C14.2466 19.6406 14.2466 19.9189 14.075 20.0905L13.1808 20.9847C13.0092 21.1563 12.7309 21.1563 12.5593 20.9847C12.3877 20.8131 12.3877 20.5348 12.5593 20.3632L13.4535 19.469C13.6251 19.2974 13.9034 19.2974 14.075 19.469ZM17.619 19.469C17.7906 19.6406 17.7906 19.9189 17.619 20.0905L16.7248 20.9847C16.5532 21.1563 16.2749 21.1563 16.1033 20.9847C15.9317 20.8131 15.9317 20.5348 16.1033 20.3632L16.9975 19.469C17.1691 19.2974 17.4474 19.2974 17.619 19.469ZM3.69936 21.8625C3.52774 21.6909 3.52774 21.4126 3.69936 21.241C3.87097 21.0694 4.14922 21.0694 4.32084 21.241L5.21504 22.1352C5.38665 22.3068 5.38665 22.5851 5.21504 22.7567C5.04342 22.9283 4.76517 22.9283 4.59356 22.7567L3.69936 21.8625ZM7.24334 21.8625C7.07172 21.6909 7.07172 21.4126 7.24334 21.241C7.41496 21.0694 7.6932 21.0694 7.86482 21.241L8.75902 22.1352C8.93064 22.3068 8.93064 22.5851 8.75902 22.7567C8.5874 22.9283 8.30916 22.9283 8.13754 22.7567L7.24334 21.8625ZM10.7873 21.8625C10.6157 21.6909 10.6157 21.4126 10.7873 21.241C10.9589 21.0694 11.2372 21.0694 11.4088 21.241L12.303 22.1352C12.4746 22.3068 12.4746 22.5851 12.303 22.7567C12.1314 22.9283 11.8531 22.9283 11.6815 22.7567L10.7873 21.8625ZM14.3313 21.8625C14.1597 21.6909 14.1597 21.4126 14.3313 21.241C14.5029 21.0694 14.7812 21.0694 14.9528 21.241L15.847 22.1352C16.0186 22.3068 16.0186 22.5851 15.847 22.7567C15.6754 22.9283 15.3971 22.9283 15.2255 22.7567L14.3313 21.8625ZM3.44304 23.013C3.61466 23.1846 3.61466 23.4629 3.44304 23.6345L2.54885 24.5287C2.37723 24.7003 2.09898 24.7003 1.92736 24.5287C1.75575 24.3571 1.75575 24.0788 1.92737 23.9072L2.82156 23.013C2.99318 22.8414 3.27143 22.8414 3.44304 23.013ZM6.98703 23.013C7.15865 23.1846 7.15865 23.4629 6.98703 23.6345L6.09283 24.5287C5.92121 24.7003 5.64297 24.7003 5.47135 24.5287C5.29973 24.3571 5.29973 24.0788 5.47135 23.9072L6.36555 23.013C6.53717 22.8414 6.81541 22.8414 6.98703 23.013ZM10.531 23.013C10.7026 23.1846 10.7026 23.4629 10.531 23.6345L9.63681 24.5287C9.4652 24.7003 9.18695 24.7003 9.01533 24.5287C8.84372 24.3571 8.84372 24.0788 9.01533 23.9072L9.90953 23.013C10.0812 22.8414 10.3594 22.8414 10.531 23.013ZM14.075 23.013C14.2466 23.1846 14.2466 23.4629 14.075 23.6345L13.1808 24.5287C13.0092 24.7003 12.7309 24.7003 12.5593 24.5287C12.3877 24.3571 12.3877 24.0788 12.5593 23.9072L13.4535 23.013C13.6251 22.8414 13.9034 22.8414 14.075 23.013ZM17.619 23.013C17.7906 23.1846 17.7906 23.4629 17.619 23.6345L16.7248 24.5287C16.5532 24.7003 16.2749 24.7003 16.1033 24.5287C15.9317 24.3571 15.9317 24.0788 16.1033 23.9072L16.9975 23.013C17.1691 22.8414 17.4474 22.8414 17.619 23.013ZM3.69936 25.4065C3.52774 25.2349 3.52774 24.9566 3.69936 24.785C3.87098 24.6134 4.14922 24.6134 4.32084 24.785L5.21504 25.6792C5.38665 25.8508 5.38665 26.1291 5.21504 26.3007C5.04342 26.4723 4.76517 26.4723 4.59356 26.3007L3.69936 25.4065ZM7.24334 25.4065C7.07172 25.2349 7.07172 24.9566 7.24334 24.785C7.41496 24.6134 7.69321 24.6134 7.86482 24.785L8.75902 25.6792C8.93064 25.8508 8.93064 26.1291 8.75902 26.3007C8.5874 26.4723 8.30916 26.4723 8.13754 26.3007L7.24334 25.4065ZM10.7873 25.4065C10.6157 25.2349 10.6157 24.9566 10.7873 24.785C10.9589 24.6134 11.2372 24.6134 11.4088 24.785L12.303 25.6792C12.4746 25.8508 12.4746 26.1291 12.303 26.3007C12.1314 26.4723 11.8531 26.4723 11.6815 26.3007L10.7873 25.4065ZM14.3313 25.4065C14.1597 25.2349 14.1597 24.9566 14.3313 24.785C14.5029 24.6134 14.7812 24.6134 14.9528 24.785L15.847 25.6792C16.0186 25.8508 16.0186 26.1291 15.847 26.3007C15.6754 26.4723 15.3971 26.4723 15.2255 26.3007L14.3313 25.4065ZM3.44304 26.557C3.61466 26.7286 3.61466 27.0068 3.44305 27.1785L2.54885 28.0727C2.37723 28.2443 2.09898 28.2443 1.92737 28.0727C1.75575 27.901 1.75575 27.6228 1.92736 27.4512L2.82156 26.557C2.99318 26.3854 3.27143 26.3854 3.44304 26.557ZM6.98703 26.557C7.15865 26.7286 7.15865 27.0068 6.98703 27.1785L6.09283 28.0727C5.92121 28.2443 5.64297 28.2443 5.47135 28.0727C5.29973 27.901 5.29973 27.6228 5.47135 27.4512L6.36555 26.557C6.53716 26.3854 6.81541 26.3854 6.98703 26.557ZM10.531 26.557C10.7026 26.7286 10.7026 27.0068 10.531 27.1785L9.63681 28.0727C9.4652 28.2443 9.18695 28.2443 9.01533 28.0727C8.84372 27.901 8.84372 27.6228 9.01533 27.4512L9.90953 26.557C10.0811 26.3854 10.3594 26.3854 10.531 26.557ZM14.075 26.557C14.2466 26.7286 14.2466 27.0068 14.075 27.1785L13.1808 28.0727C13.0092 28.2443 12.7309 28.2443 12.5593 28.0727C12.3877 27.901 12.3877 27.6228 12.5593 27.4512L13.4535 26.557C13.6251 26.3854 13.9034 26.3854 14.075 26.557ZM17.619 26.557C17.7906 26.7286 17.7906 27.0068 17.619 27.1785L16.7248 28.0727C16.5532 28.2443 16.2749 28.2443 16.1033 28.0727C15.9317 27.901 15.9317 27.6228 16.1033 27.4512L16.9975 26.557C17.1691 26.3854 17.4474 26.3854 17.619 26.557Z" fill="white"/>
</g>
<defs>
<clipPath id="clip0_4878_305">
<rect width="30" height="30" fill="white"/>
</clipPath>
</defs>
</svg>
