<svg width="30" height="30" viewBox="0 0 30 30" fill="none" xmlns="http://www.w3.org/2000/svg">
<g clip-path="url(#clip0_4715_71)">
<path d="M9.65912 12.7196C9.93243 14.496 11.3052 16.757 13.56 17.5521C14.4855 17.8751 15.4979 17.8813 16.4235 17.5459C18.641 16.7446 20.0572 14.4898 20.3367 12.7196C20.6349 12.6947 21.0262 12.2785 21.4486 10.7816C22.0263 8.73797 21.4113 8.43361 20.8895 8.4833C20.9889 8.20378 21.0635 7.91805 21.1132 7.64474C21.9952 2.34632 19.3864 2.16619 19.3864 2.16619C19.3864 2.16619 18.9516 1.33385 17.8148 0.706482C17.0508 0.253042 15.9887 -0.0948033 14.5911 0.0232155C14.1376 0.04185 13.709 0.135023 13.3053 0.265465C12.7897 0.439387 12.3177 0.694059 11.8891 0.992212C11.3673 1.32142 10.8704 1.73138 10.4356 2.19725C9.74609 2.90536 9.13115 3.81845 8.86405 4.95516C8.64044 5.80614 8.69013 6.69438 8.87647 7.65096C8.92617 7.93047 9.0007 8.20999 9.10009 8.48951C8.57832 8.43982 7.96338 8.74418 8.54105 10.7878C8.96965 12.2785 9.36097 12.6947 9.65912 12.7196Z" fill="white"/>
<path d="M25.2438 19.6702C22.0697 18.8627 19.492 17.049 19.492 17.049L17.4794 23.4158L17.1005 24.6146L17.0943 24.5959L16.7651 25.6146L15.7029 22.602C18.3118 18.9621 15.175 18.9994 15.001 19.0056C14.8271 18.9994 11.6903 18.9621 14.2991 22.602L13.237 25.6146L12.9078 24.5959L12.9016 24.6146L12.5226 23.4158L10.5039 17.049C10.5039 17.049 7.92613 18.8627 4.75204 19.6702C2.38546 20.2727 2.27365 23.0058 2.36682 24.3537C2.36682 24.3537 2.50348 26.1861 2.64013 26.9936C2.64013 26.9936 7.2615 29.9937 15.001 30C22.7406 30 27.362 26.9936 27.362 26.9936C27.4986 26.1861 27.6353 24.3537 27.6353 24.3537C27.7222 23.0058 27.6104 20.2727 25.2438 19.6702Z" fill="white"/>
</g>
<defs>
<clipPath id="clip0_4715_71">
<rect width="30" height="30" fill="white"/>
</clipPath>
</defs>
</svg>
