<svg width="30" height="30" viewBox="0 0 30 30" fill="none" xmlns="http://www.w3.org/2000/svg">
<path d="M28.165 18.7285V16.835H19.4363C19.4363 19.2851 17.4501 21.2713 15 21.2713C12.5499 21.2713 10.5638 19.2851 10.5638 16.835H1.83508V18.7285L5.6254 19.1299C5.8587 20.0857 6.23769 21 6.74905 21.8405L4.35209 24.8052L7.02989 27.483L9.99456 25.086C10.8351 25.5974 11.7494 25.9764 12.7052 26.2097L13.1066 30H16.8935L17.2949 26.2097C18.2507 25.9764 19.165 25.5974 20.0055 25.086L22.9702 27.483L25.648 24.8052L23.251 21.8405C23.7624 21 24.1414 20.0857 24.3747 19.1299L28.165 18.7285ZM15 0C13.1251 0 11.5997 1.52543 11.5997 3.40037C11.5997 5.27531 13.1251 6.80068 15 6.80068C16.875 6.80068 18.4004 5.27531 18.4004 3.40037C18.4004 1.52543 16.875 0 15 0ZM18.6204 7.74076H11.3797C9.71278 7.74082 8.35663 9.09691 8.35663 10.7638V15.0772H21.6435V10.7638C21.6435 9.09691 20.2873 7.74076 18.6204 7.74076ZM7.78639 1.57078C6.10674 1.57078 4.74028 2.9373 4.74028 4.61689C4.74028 6.28301 6.08506 7.64022 7.74614 7.66195C8.43403 6.85734 9.38319 6.28307 10.4615 6.07242C10.7055 5.62611 10.8331 5.12553 10.8325 4.61689C10.8325 2.93725 9.46604 1.57078 7.78639 1.57078ZM4.54323 8.50512C3.04997 8.50512 1.83508 9.71994 1.83508 11.2133V15.0772H6.59881V10.7638C6.59796 9.97542 6.79334 9.19919 7.16735 8.50512H4.54323ZM22.2137 1.57078C20.534 1.57078 19.1676 2.9373 19.1676 4.61689C19.167 5.12552 19.2945 5.62611 19.5385 6.07242C20.6169 6.28307 21.5661 6.85734 22.2539 7.66195C23.915 7.64027 25.2598 6.28301 25.2598 4.61689C25.2598 2.93725 23.8933 1.57078 22.2137 1.57078ZM25.4569 8.50512H22.8327C23.2067 9.19919 23.4021 9.97542 23.4013 10.7638V15.0772H28.165V11.2132C28.165 9.71994 26.9501 8.50512 25.4569 8.50512Z" fill="white"/>
</svg>
