<svg width="30" height="30" viewBox="0 0 30 30" fill="none" xmlns="http://www.w3.org/2000/svg">
<g clip-path="url(#clip0_4715_77)">
<path d="M27.5 6.25006H21.25V5.00002C21.25 3.62125 20.1288 2.5 18.75 2.5H11.25C9.87123 2.5 8.74998 3.62119 8.74998 5.00002V6.25H2.50002C1.12119 6.25006 2.59882e-08 7.37125 2.59882e-08 8.75002V12.5C2.59882e-08 13.8788 1.12119 15 2.50002 15H12.5V14.375C12.5 14.2929 12.5161 14.2116 12.5475 14.1358C12.5789 14.0599 12.6249 13.991 12.683 13.9329C12.741 13.8749 12.81 13.8289 12.8858 13.7975C12.9617 13.7661 13.043 13.7499 13.1251 13.75H16.8751C16.9572 13.7499 17.0385 13.7661 17.1143 13.7975C17.1902 13.8289 17.2591 13.8749 17.3171 13.9329C17.3752 13.991 17.4212 14.0599 17.4526 14.1358C17.484 14.2116 17.5001 14.2929 17.5001 14.375V15H27.5001C28.8788 15 30 13.8788 30 12.5V8.75002C30 7.37125 28.8788 6.25006 27.5 6.25006ZM18.75 6.25006H11.25V5.00002H18.75V6.25006ZM29.6533 15.6745C29.5491 15.6228 29.4326 15.6012 29.3168 15.6121C29.201 15.623 29.0905 15.6659 28.9978 15.7361C28.5534 16.0724 28.0358 16.25 27.4999 16.25H17.5V18.125C17.5001 18.2071 17.4839 18.2884 17.4526 18.3643C17.4212 18.4401 17.3751 18.509 17.3171 18.5671C17.259 18.6251 17.1901 18.6712 17.1142 18.7026C17.0384 18.734 16.9571 18.7501 16.875 18.75H13.125C13.0429 18.7501 12.9616 18.734 12.8858 18.7026C12.8099 18.6712 12.741 18.6251 12.6829 18.5671C12.6249 18.509 12.5788 18.4401 12.5474 18.3643C12.5161 18.2884 12.4999 18.2071 12.5 18.125V16.25H2.50002C1.96412 16.25 1.44656 16.0724 1.00219 15.7361C0.909699 15.6654 0.799182 15.6221 0.683261 15.6112C0.567341 15.6003 0.450692 15.6222 0.346641 15.6745C0.242496 15.7263 0.154874 15.8061 0.0936342 15.905C0.0323942 16.0039 -3.35119e-05 16.1179 2.59882e-08 16.2342V25.0001C2.59882e-08 26.3788 1.12119 27.5001 2.50002 27.5001H27.5C28.8788 27.5001 30.0001 26.3789 30.0001 25.0001V16.2342C30.0001 16.1179 29.9676 16.0039 29.9064 15.905C29.8451 15.8061 29.7575 15.7262 29.6533 15.6745Z" fill="white"/>
</g>
<defs>
<clipPath id="clip0_4715_77">
<rect width="30" height="30" fill="white"/>
</clipPath>
</defs>
</svg>
