<svg width="30" height="30" viewBox="0 0 30 30" fill="none" xmlns="http://www.w3.org/2000/svg">
<path fill-rule="evenodd" clip-rule="evenodd" d="M11.0906 6.27417H27.745L17.8531 13.0554L11.1246 8.44273C11.3808 7.75677 11.3829 6.9814 11.0906 6.27417ZM6.73492 10.21L9.16246 8.73195C9.88287 8.29331 10.122 7.35745 9.70023 6.62697L7.50865 2.83103C7.28383 2.44156 6.94352 2.19101 6.50488 2.09199C6.06619 1.9929 5.65135 2.07288 5.28092 2.32794L1.28412 5.07974C-0.61836 11.7831 7.931 26.2956 14.4879 27.9492L18.8694 25.8638C19.2754 25.6706 19.5522 25.3512 19.6857 24.9218C19.8193 24.4924 19.7724 24.0724 19.5476 23.683L17.356 19.887C16.9343 19.1565 16.0042 18.8957 15.2641 19.3003L12.7703 20.6635C10.3041 18.4702 7.40137 13.4425 6.73492 10.21ZM28.9546 7.14628L18.2487 14.4856C17.9982 14.6566 17.6763 14.6432 17.4435 14.476L10.3361 9.60359C10.1992 9.72696 10.0511 9.83728 9.89377 9.93312L8.35838 10.8679C9.16504 13.4712 11.161 16.9284 13.0122 18.9286L14.5895 18.0663C15.9988 17.296 17.7707 17.7929 18.5737 19.1839L19.9329 21.538H27.8494C28.4744 21.538 28.9858 21.0266 28.9858 20.4015V7.41066C28.9859 7.32161 28.9754 7.23287 28.9546 7.14628Z" fill="white"/>
</svg>
